<mxfile host="app.diagrams.net" modified="2023-05-11T07:11:16.720Z" agent="Mozilla/5.0 (Windows NT 10.0; Win64; x64) AppleWebKit/537.36 (KHTML, like Gecko) Chrome/112.0.0.0 Safari/537.36" etag="xE_lYNpxJ2idALDv6t46" version="21.2.9" type="device">
  <diagram name="Page-1" id="kD3xbtRF4Qw1SZpTpUKD">
    <mxGraphModel dx="996" dy="830" grid="1" gridSize="10" guides="1" tooltips="1" connect="1" arrows="1" fold="1" page="1" pageScale="1" pageWidth="1169" pageHeight="827" math="0" shadow="0">
      <root>
        <mxCell id="0" />
        <mxCell id="1" parent="0" />
        <mxCell id="hMM3jDn0ftNgphWTLsed-1" value="Pegawai" style="swimlane;whiteSpace=wrap;html=1;" parent="1" vertex="1">
          <mxGeometry x="10" y="7" width="550" height="820" as="geometry" />
        </mxCell>
        <mxCell id="hMM3jDn0ftNgphWTLsed-14" value="" style="edgeStyle=orthogonalEdgeStyle;rounded=0;orthogonalLoop=1;jettySize=auto;html=1;" parent="hMM3jDn0ftNgphWTLsed-1" source="dr7BZVyFu7AFei0hmRka-1" target="hMM3jDn0ftNgphWTLsed-12" edge="1">
          <mxGeometry relative="1" as="geometry" />
        </mxCell>
        <mxCell id="dr7BZVyFu7AFei0hmRka-1" value="&lt;font face=&quot;Georgia&quot; style=&quot;font-size: 11px;&quot;&gt;MULAI&lt;/font&gt;" style="strokeWidth=2;html=1;shape=mxgraph.flowchart.start_1;whiteSpace=wrap;" parent="hMM3jDn0ftNgphWTLsed-1" vertex="1">
          <mxGeometry x="225" y="43" width="100" height="70" as="geometry" />
        </mxCell>
        <mxCell id="hMM3jDn0ftNgphWTLsed-12" value="&lt;span style=&quot;font-size: 11px;&quot;&gt;INPUT NOTA PESAWAT&lt;/span&gt;" style="shape=parallelogram;html=1;strokeWidth=2;perimeter=parallelogramPerimeter;whiteSpace=wrap;rounded=1;arcSize=12;size=0.23;" parent="hMM3jDn0ftNgphWTLsed-1" vertex="1">
          <mxGeometry x="180" y="153" width="190" height="67" as="geometry" />
        </mxCell>
        <mxCell id="hMM3jDn0ftNgphWTLsed-10" value="Bendahara" style="swimlane;whiteSpace=wrap;html=1;" parent="1" vertex="1">
          <mxGeometry x="560" y="7" width="570" height="820" as="geometry" />
        </mxCell>
        <mxCell id="hMM3jDn0ftNgphWTLsed-44" value="SELESAI" style="ellipse;whiteSpace=wrap;html=1;" parent="hMM3jDn0ftNgphWTLsed-10" vertex="1">
          <mxGeometry x="107.5" y="743" width="95" height="53" as="geometry" />
        </mxCell>
        <mxCell id="hMM3jDn0ftNgphWTLsed-45" value="" style="endArrow=classic;html=1;rounded=0;entryX=0.5;entryY=0;entryDx=0;entryDy=0;" parent="hMM3jDn0ftNgphWTLsed-10" target="hMM3jDn0ftNgphWTLsed-44" edge="1">
          <mxGeometry width="50" height="50" relative="1" as="geometry">
            <mxPoint x="155" y="709.5" as="sourcePoint" />
            <mxPoint x="140" y="623" as="targetPoint" />
          </mxGeometry>
        </mxCell>
      </root>
    </mxGraphModel>
  </diagram>
</mxfile>
